<svg xmlns="http://www.w3.org/2000/svg" width="46" height="39.15" viewBox="0 0 46 39.15"><defs><style>.cls-1{fill:#bec6d2;}.cls-2{fill:#fff;}</style></defs><g id="Layer_2" data-name="Layer 2"><g id="Layer_1-2" data-name="Layer 1"><path class="cls-1" d="M6.86,27.82,1.22,25.19,13,0,18.6,2.63Zm-3-3.6,2,.94L15.94,3.6l-2-.94Z"/><path class="cls-2" d="M5.27,21.91h0A4.27,4.27,0,0,1,9.5,26.22h0V38.12H1V26.23a4.27,4.27,0,0,1,4.22-4.32Z"/><path class="cls-1" d="M10.5,39.12H0V26.23a5.27,5.27,0,0,1,5.21-5.32h.07a5.28,5.28,0,0,1,5.22,5.32Zm-8.5-2H8.5V26.23a3.28,3.28,0,0,0-3.24-3.32h0A3.27,3.27,0,0,0,2,26.22Z"/><rect class="cls-1" x="8.05" y="13.47" width="2" height="4.81" transform="translate(-7.25 7.62) rotate(-33.46)"/><rect class="cls-1" x="11.5" y="5.54" width="2" height="4.8" transform="translate(-2.31 8.18) rotate(-33.35)"/><path class="cls-1" d="M22.44,28.76a1.3,1.3,0,1,0,1.29,1.31h0A1.3,1.3,0,0,0,22.44,28.76Z"/><path class="cls-1" d="M36.5,28.76a1.3,1.3,0,1,0,1.3,1.3h0A1.3,1.3,0,0,0,36.5,28.76Z"/><rect class="cls-1" x="26.37" y="29.06" width="6.2" height="2"/><path class="cls-1" d="M41.87,39.15H39.64a1.92,1.92,0,0,1-1.92-1.92V36H21.22v1.2a1.92,1.92,0,0,1-1.92,1.92H17.07a1.92,1.92,0,0,1-1.92-1.92V25.64l5-9.41h18.7l5,9.42V37.23A1.92,1.92,0,0,1,41.87,39.15Zm-2.15-2h2.07v-11l-4.17-7.92H21.32l-4.17,7.91v11h2.07V34h20.5Z"/><rect class="cls-1" x="12.94" y="24.15" width="33.06" height="2"/></g></g></svg>