<?xml version="1.0" encoding="UTF-8"?>
<svg width="60px" height="60px" viewBox="0 0 60 60" version="1.1" xmlns="http://www.w3.org/2000/svg" xmlns:xlink="http://www.w3.org/1999/xlink">
    <title>480DDD5E-A2A4-4FC1-8080-EE0017B27E5F</title>
    <defs>
        <circle id="path-1" cx="29.8647619" cy="29.8647619" r="29.8647619"></circle>
    </defs>
    <g id="Parking" stroke="none" stroke-width="1" fill="none" fill-rule="evenodd">
        <g id="New-profile-|-description" transform="translate(-150.000000, -108.000000)">
            <g id="Group-34" transform="translate(150.000000, 108.000000)">
                <mask id="mask-2" fill="white">
                    <use xlink:href="#path-1"></use>
                </mask>
                <use id="Mask" fill="#EB6D4A" fill-rule="nonzero" xlink:href="#path-1"></use>
                <g mask="url(#mask-2)">
                    <g transform="translate(12.551746, 3.469524)">
                        <path d="M30.6031746,13.2873016 L30.6031746,23.2130159 C30.6031746,23.3568254 30.5996825,23.5003175 30.5965079,23.6438095 C30.5901587,23.9409524 30.5736508,24.2377778 30.547619,24.5314286 C30.5412698,24.6326984 30.5311111,24.7336508 30.5180952,24.8349206 C30.4755556,25.255873 30.4171429,25.6704762 30.3419048,26.0819048 C30.3155556,26.2190476 30.2895238,26.3526984 30.26,26.4866667 C30.2568254,26.515873 30.2504762,26.5422222 30.2438095,26.568254 C30.2174603,26.7053968 30.1847619,26.8393651 30.152381,26.9730159 C30.1393651,27.0447619 30.1196825,27.1165079 30.1034921,27.1885714 C30.0869841,27.2504762 30.0707937,27.3126984 30.0514286,27.3746032 C29.9825397,27.6422222 29.9044444,27.9034921 29.8225397,28.1644444 C29.7834921,28.2885714 29.7444444,28.4092063 29.7019048,28.5333333 C29.6984127,28.5463492 29.6920635,28.5593651 29.6888889,28.572381 C29.6495238,28.6831746 29.6104762,28.7942857 29.5714286,28.9050794 C29.5584127,28.9377778 29.5453968,28.9701587 29.5320635,29.0063492 C29.4930159,29.1107937 29.4539683,29.2152381 29.4114286,29.3196825 C29.3625397,29.4469841 29.3104762,29.5711111 29.2580952,29.6952381 C29.212381,29.8063492 29.1634921,29.9171429 29.1146032,30.028254 C29.108254,30.0479365 29.0980952,30.064127 29.091746,30.0834921 C29.0361905,30.2009524 28.984127,30.3187302 28.9285714,30.4326984 C28.8730159,30.5533333 28.8142857,30.6742857 28.7520635,30.7952381 C28.6346032,31.0333333 28.5073016,31.271746 28.38,31.5034921 C28.3212698,31.6079365 28.2625397,31.712381 28.2034921,31.8168254 C27.7009524,32.6819048 27.1428571,33.4946032 26.535873,34.2450794 C26.4539683,34.3526984 26.3695238,34.4571429 26.2812698,34.5584127 C26.1603175,34.7050794 26.0361905,34.8488889 25.912381,34.9892063 C25.8012698,35.1133333 25.6904762,35.2371429 25.5761905,35.3580952 C25.2628571,35.6942857 24.9428571,36.0142857 24.6165079,36.3146032 C24.5514286,36.38 24.4825397,36.4387302 24.4139683,36.5006349 C24.3031746,36.6019048 24.192381,36.6996825 24.0777778,36.7942857 C23.9898413,36.8726984 23.8984127,36.947619 23.8066667,37.0228571 C23.571746,37.2152381 23.3368254,37.4012698 23.0987302,37.5742857 C23.0006349,37.6495238 22.8993651,37.7212698 22.7984127,37.7898413 C22.6352381,37.9073016 22.4688889,38.0184127 22.3022222,38.1260317 C22.2107937,38.1879365 22.1161905,38.2466667 22.0212698,38.3022222 C21.688254,38.5079365 21.352381,38.6971429 21.0193651,38.8603175 C20.9377778,38.9025397 20.8561905,38.9419048 20.7746032,38.9809524 C20.6926984,39.02 20.608254,39.0593651 20.52,39.0984127 C20.4120635,39.1473016 20.3044444,39.1930159 20.1968254,39.2355556 C20.1542857,39.2552381 20.111746,39.2714286 20.0695238,39.2844444 C19.9425397,39.3368254 19.811746,39.3857143 19.6844444,39.4279365 C19.5244444,39.4866667 19.3612698,39.5355556 19.2015873,39.5812698 C19.0904762,39.6139683 18.9765079,39.6431746 18.8653968,39.6692063 C18.8587302,39.6726984 18.852381,39.675873 18.8425397,39.675873 C18.7314286,39.7019048 18.6206349,39.728254 18.5095238,39.747619 C18.48,39.7542857 18.4511111,39.7606349 18.4215873,39.7638095 C18.3301587,39.78 18.2387302,39.7965079 18.1473016,39.8063492 C18.0168254,39.8260317 17.8863492,39.8422222 17.755873,39.8488889 C17.7104762,39.8552381 17.6679365,39.8587302 17.6219048,39.8587302 C17.5177778,39.8653968 17.4133333,39.8685714 17.311746,39.8685714 L17.3022222,39.8685714 C17.2009524,39.8685714 17.0996825,39.8653968 16.9987302,39.8587302 C16.9593651,39.8587302 16.9203175,39.8555556 16.8809524,39.8488889 C16.7898413,39.8457143 16.6949206,39.8355556 16.5971429,39.8225397 C16.5774603,39.8225397 16.5546032,39.8193651 16.5352381,39.8161905 C16.4142857,39.8 16.2936508,39.7803175 16.1695238,39.7574603 C16.0653968,39.7412698 15.9609524,39.7180952 15.8530159,39.6920635 C15.2949206,39.5647619 14.7206349,39.372381 14.1396825,39.1142857 C13.6434921,38.8955556 13.1409524,38.6314286 12.6415873,38.3244444 C12.3901587,38.1711111 12.1387302,38.0079365 11.8907937,37.8349206 C11.7666667,37.7466667 11.6428571,37.6587302 11.5187302,37.5673016 C11.1301587,37.2831746 10.7450794,36.9733333 10.3663492,36.6403175 C10.2622222,36.5457143 10.1577778,36.4511111 10.0533333,36.3530159 C9.94888889,36.2584127 9.84444444,36.1606349 9.7431746,36.0660317 C9.48825397,35.8212698 9.24031746,35.5666667 8.99873016,35.3022222 C8.90412698,35.2012698 8.80952381,35.0968254 8.71460317,34.9888889 C8.45365079,34.6952381 8.19904762,34.391746 7.95746032,34.0749206 C7.86253968,33.9606349 7.77460317,33.8431746 7.68634921,33.7257143 C7.3568254,33.2885714 7.04349206,32.8314286 6.74952381,32.3580952 C6.67142857,32.2307937 6.59301587,32.1 6.51809524,31.9730159 C6.42666667,31.8196825 6.33873016,31.6631746 6.25047619,31.5063492 C5.92412698,30.9187302 5.62349206,30.3085714 5.36253968,29.6784127 C5.32349206,29.5869841 5.28412698,29.4955556 5.25142857,29.4044444 C5.19904762,29.2869841 5.15333333,29.1660317 5.11111111,29.0485714 C5.04603175,28.8755556 4.98412698,28.7025397 4.92507937,28.5295238 C4.86634921,28.3565079 4.81111111,28.1803175 4.75555556,28.004127 C4.7031746,27.8342857 4.65428571,27.6647619 4.60857143,27.491746 C4.55619048,27.3088889 4.50761905,27.1228571 4.46507937,26.9336508 C4.4615873,26.9139683 4.4552381,26.8946032 4.45206349,26.8749206 C4.39015873,26.6139683 4.33460317,26.3495238 4.28571429,26.0819048 C4.22031746,25.7292063 4.16825397,25.3701587 4.12888889,25.0079365 C4.11269841,24.8936508 4.10285714,24.7793651 4.09301587,24.6650794 C4.08,24.5444444 4.07047619,24.4266667 4.06380952,24.3060317 C4.04730159,24.0873016 4.03746032,23.8653968 4.03079365,23.6434921 C4.02761905,23.4996825 4.02412698,23.3561905 4.02412698,23.2126984 L4.02412698,13.2873016 C4.02412698,5.95333333 9.96793651,0.00666666667 17.3019048,-1.03761796e-13 L17.3149206,-1.03761796e-13 C18.3269841,-1.03761796e-13 19.312381,0.113968254 20.2587302,0.326349206 C21.1238095,0.522222222 21.9561905,0.802857143 22.7460317,1.15873016 C23.8231746,1.64190476 24.8250794,2.26190476 25.7260317,3.00285714 C26.4831746,3.6231746 27.1720635,4.3215873 27.772381,5.09174603 C29.5457143,7.35047619 30.6031746,10.1933333 30.6031746,13.2873016 Z" id="Path" fill="#ECC19C" fill-rule="nonzero"></path>
                        <path d="M34.6269841,60.2577778 L34.6269841,60.2609524 L-2.93239859e-14,60.2609524 L-2.93239859e-14,60.2577778 C-2.93239859e-14,58.3028571 0.323174603,56.4193651 0.923809524,54.6666667 C1.03142857,54.3501587 1.14888889,54.0368254 1.27619048,53.7266667 L1.27619048,53.7234921 C1.4031746,53.4133333 1.53714286,53.1098413 1.68063492,52.8095238 C2.25206349,51.6050794 2.96349206,50.4790476 3.78920635,49.447619 C3.99809524,49.1898413 4.21015873,48.9384127 4.42920635,48.6968254 C4.5368254,48.5726984 4.65111111,48.4520635 4.76539683,48.3314286 C4.87968254,48.2139683 4.99396825,48.0965079 5.11142857,47.9790476 C5.69587302,47.3949206 6.32222222,46.8596825 6.98190476,46.3666667 C7.31142857,46.1219048 7.64444444,45.8933333 7.99047619,45.6714286 C8.33650794,45.4526984 8.68888889,45.2438095 9.04793651,45.0479365 C9.05460317,45.0415873 9.06095238,45.0415873 9.06095238,45.0415873 C9.20126984,44.9666667 9.3384127,44.8850794 9.47555556,44.8 C9.74666667,44.6368254 10.0139683,44.4606349 10.2688889,44.2714286 C10.3993651,44.18 10.5234921,44.0853968 10.6473016,43.984127 C10.9409524,43.7492063 11.2247619,43.4977778 11.495873,43.2333333 C11.5838095,43.1453968 11.672381,43.0571429 11.7603175,42.9657143 C11.9428571,42.7761905 12.115873,42.5771429 12.2825397,42.3749206 C12.3644444,42.2771429 12.4460317,42.175873 12.5209524,42.0746032 C12.5993651,41.9736508 12.6742857,41.8692063 12.7495238,41.7644444 C13.3304762,40.9549206 13.7971429,40.064127 14.14,39.1139683 C14.5546032,37.9584127 14.7796825,36.7149206 14.7796825,35.415873 L17.3028571,35.4288889 L19.8974603,35.4419048 C19.8974603,36.7244444 20.1161905,37.9549206 20.5209524,39.0974603 C20.8574603,40.0504762 21.3238095,40.9415873 21.8952381,41.7511111 C22.4892063,42.5930159 23.1974603,43.3438095 24.0003175,43.9866667 C24.1212698,44.0847619 24.2419048,44.1793651 24.3628571,44.2673016 C24.4803175,44.3555556 24.6009524,44.4403175 24.7250794,44.5219048 C24.7514286,44.5415873 24.7739683,44.5577778 24.8003175,44.5742857 C24.9177778,44.6526984 25.0352381,44.7311111 25.1593651,44.8028571 C25.2930159,44.8844444 25.4304762,44.9660317 25.5673016,45.0412698 C25.5898413,45.047619 25.6098413,45.0574603 25.6260317,45.0707937 C25.9133333,45.2307937 26.1974603,45.3971429 26.4749206,45.5701587 C26.6085714,45.651746 26.7425397,45.7365079 26.8730159,45.8314286 C27.144127,46.007619 27.4085714,46.1936508 27.6660317,46.3895238 C27.6660317,46.3930159 27.6695238,46.3930159 27.6695238,46.3930159 L27.6726984,46.3930159 C28.3320635,46.8857143 28.9555556,47.424127 29.5396825,48.0053968 C32.6850794,51.1384127 34.6269841,55.4663492 34.6269841,60.2577778 Z" id="Path" fill="#ECC19C" fill-rule="nonzero"></path>
                        <path d="M34.6273016,60.2584127 L0.000317460317,60.2584127 C0.000317460317,58.3031746 0.323809524,56.42 0.924126984,54.6673016 C1.03174603,54.3504762 1.14920635,54.0374603 1.27650794,53.7273016 C1.27301587,53.7238095 1.27650794,53.7238095 1.27650794,53.7238095 C1.40063492,53.4136508 1.53746032,53.1101587 1.68095238,52.8101587 C2.25238095,51.6057143 2.96380952,50.4796825 3.78952381,49.448254 C3.9984127,49.1901587 4.21079365,48.9390476 4.42952381,48.6974603 C4.53714286,48.5733333 4.65142857,48.4526984 4.76571429,48.3320635 C4.88,48.2146032 4.99428571,48.0971429 5.11174603,47.9796825 C5.69619048,47.3955556 6.32253968,46.86 6.98222222,46.3673016 C7.31174603,46.1225397 7.6447619,45.8939683 7.99079365,45.6720635 C8.3368254,45.4501587 8.68920635,45.2412698 9.04825397,45.0453968 C9.05492063,45.0390476 9.06126984,45.0422222 9.06126984,45.0422222 L9.06126984,45.0390476 C9.2015873,44.9606349 9.33873016,44.8822222 9.47587302,44.8006349 C9.88380952,44.5526984 10.275873,44.2784127 10.6412698,43.9780952 C10.6444444,43.9812698 10.6444444,43.9812698 10.6479365,43.9844444 C12.3384127,45.7142857 14.691746,46.7879365 17.3031746,46.7946032 L17.3292063,46.7946032 C19.9403175,46.7946032 22.3034921,45.7174603 24.0006349,43.987619 L24.004127,43.9844444 C24.2355556,44.1768254 24.4771429,44.3565079 24.7253968,44.5228571 C24.7514286,44.5422222 24.7742857,44.5587302 24.8003175,44.5749206 C24.9177778,44.6533333 25.0384127,44.728254 25.1593651,44.8034921 C25.2933333,44.8850794 25.4304762,44.9634921 25.5673016,45.0384127 C25.5901587,45.0447619 25.6063492,45.0577778 25.6260317,45.067619 C25.9133333,45.227619 26.1974603,45.3939683 26.4749206,45.5701587 C26.6085714,45.651746 26.7425397,45.7365079 26.8730159,45.8314286 C27.144127,46.0044444 27.4085714,46.1936508 27.6660317,46.3895238 L27.6726984,46.3895238 C28.3355556,46.8857143 28.9587302,47.424127 29.5396825,48.0050794 C32.6853968,51.1390476 34.6273016,55.4669841 34.6273016,60.2584127 Z" id="Path" fill="#C7D4E2" fill-rule="nonzero"></path>
                        <path d="M30.6031746,23.2130159 C30.6031746,23.3568254 30.5996825,23.5003175 30.5965079,23.6438095 C30.5901587,23.9409524 30.5736508,24.2377778 30.547619,24.5314286 C30.5412698,24.6326984 30.5311111,24.7336508 30.5180952,24.8349206 C30.4755556,25.255873 30.4171429,25.6704762 30.3419048,26.0819048 C30.3155556,26.2190476 30.2895238,26.3526984 30.26,26.4866667 C30.2568254,26.515873 30.2504762,26.5422222 30.2438095,26.568254 C30.2174603,26.7053968 30.1847619,26.8393651 30.152381,26.9730159 C30.135873,27.0514286 30.1165079,27.1263492 30.0933333,27.2015873 C30.0838095,27.2603175 30.0673016,27.3190476 30.0511111,27.3746032 C29.9822222,27.6422222 29.904127,27.9034921 29.8222222,28.1644444 C29.7831746,28.2885714 29.744127,28.4092063 29.7015873,28.5333333 C29.6980952,28.5463492 29.691746,28.5593651 29.6885714,28.572381 C29.6492063,28.6831746 29.6101587,28.7942857 29.5711111,28.9050794 C29.5580952,28.9377778 29.5450794,28.9701587 29.531746,29.0063492 C29.4926984,29.1107937 29.4536508,29.2152381 29.4111111,29.3196825 C29.3622222,29.4469841 29.3101587,29.5711111 29.2577778,29.6952381 C29.2120635,29.8063492 29.1631746,29.9171429 29.1142857,30.028254 C29.1079365,30.0479365 29.0977778,30.064127 29.0914286,30.0834921 C29.035873,30.2009524 28.9838095,30.3187302 28.928254,30.4326984 C28.8726984,30.5533333 28.8139683,30.6742857 28.751746,30.7952381 C28.6342857,31.0333333 28.5069841,31.271746 28.3796825,31.5034921 C28.3209524,31.6079365 28.2622222,31.712381 28.2031746,31.8168254 C27.7006349,32.6819048 27.1425397,33.4946032 26.5355556,34.2450794 C26.4536508,34.3526984 26.3692063,34.4571429 26.2809524,34.5584127 C26.16,34.7050794 26.035873,34.8488889 25.9120635,34.9892063 C25.8009524,35.1133333 25.6901587,35.2371429 25.575873,35.3580952 C25.2625397,35.6942857 24.9425397,36.0142857 24.6161905,36.3146032 C24.5511111,36.38 24.4822222,36.4387302 24.4136508,36.5006349 C24.3028571,36.6019048 24.1920635,36.6996825 24.0774603,36.7942857 C23.9895238,36.8726984 23.8980952,36.947619 23.8063492,37.0228571 C23.5714286,37.2152381 23.3365079,37.4012698 23.0984127,37.5742857 C23.0003175,37.6495238 22.8990476,37.7212698 22.7980952,37.7898413 C22.6349206,37.9073016 22.4685714,38.0184127 22.3019048,38.1260317 C22.2104762,38.1879365 22.115873,38.2466667 22.0209524,38.3022222 C21.6879365,38.5079365 21.3520635,38.6971429 21.0190476,38.8603175 C20.9374603,38.9025397 20.855873,38.9419048 20.7742857,38.9809524 C20.692381,39.02 20.6079365,39.0593651 20.5196825,39.0984127 C20.411746,39.1473016 20.304127,39.1930159 20.1965079,39.2355556 C20.1539683,39.2552381 20.1114286,39.2714286 20.0692063,39.2844444 C19.9422222,39.3368254 19.8114286,39.3857143 19.684127,39.4279365 C19.524127,39.4866667 19.3609524,39.5355556 19.2012698,39.5812698 C19.0901587,39.6139683 18.9761905,39.6431746 18.8650794,39.6692063 C18.8584127,39.6726984 18.8520635,39.675873 18.8422222,39.675873 C18.7311111,39.7019048 18.6203175,39.728254 18.5092063,39.747619 C18.4796825,39.7542857 18.4507937,39.7606349 18.4212698,39.7638095 C18.3298413,39.78 18.2384127,39.7965079 18.1469841,39.8063492 C18.0165079,39.8260317 17.8860317,39.8422222 17.7555556,39.8488889 C17.7101587,39.8552381 17.667619,39.8587302 17.6215873,39.8587302 C17.5174603,39.8653968 17.4130159,39.8685714 17.3114286,39.8685714 L17.3019048,39.8685714 C17.2006349,39.8685714 17.0993651,39.8653968 16.9984127,39.8587302 C16.9590476,39.8587302 16.92,39.8555556 16.8806349,39.8488889 C16.7895238,39.8457143 16.6946032,39.8355556 16.5968254,39.8225397 C16.5771429,39.8225397 16.5542857,39.8193651 16.5349206,39.8161905 C16.4139683,39.8 16.2933333,39.7803175 16.1692063,39.7574603 C16.0650794,39.7412698 15.9606349,39.7180952 15.8526984,39.6920635 C15.2946032,39.5647619 14.7203175,39.372381 14.1393651,39.1142857 C13.6431746,38.8955556 13.1406349,38.6314286 12.6412698,38.3244444 C12.3898413,38.1742857 12.1419048,38.0111111 11.8904762,37.8349206 C11.7663492,37.7466667 11.6425397,37.6587302 11.5184127,37.5673016 C11.1298413,37.2831746 10.7447619,36.9733333 10.3660317,36.6403175 C10.2619048,36.5457143 10.1574603,36.4511111 10.0530159,36.3530159 C9.94857143,36.2584127 9.84412698,36.1606349 9.74285714,36.0660317 C9.48793651,35.8212698 9.24,35.5666667 8.9984127,35.3022222 C8.90380952,35.2012698 8.80920635,35.0968254 8.71428571,34.9888889 C8.45333333,34.6952381 8.19873016,34.391746 7.95714286,34.0749206 C7.86222222,33.9606349 7.77428571,33.8431746 7.68603175,33.7257143 C7.35650794,33.2885714 7.0431746,32.8314286 6.74920635,32.3580952 C6.67111111,32.2307937 6.59269841,32.1 6.51777778,31.9730159 C6.42634921,31.8196825 6.3384127,31.6631746 6.25015873,31.5063492 C5.92380952,30.9187302 5.6231746,30.3085714 5.36222222,29.6784127 C5.3231746,29.5869841 5.28380952,29.4955556 5.25111111,29.4044444 C5.19873016,29.2869841 5.15301587,29.1660317 5.11079365,29.0485714 C5.04571429,28.8755556 4.98380952,28.7025397 4.9247619,28.5295238 C4.86603175,28.3565079 4.81079365,28.1803175 4.7552381,28.004127 C4.70285714,27.8342857 4.65396825,27.6647619 4.60825397,27.491746 C4.55587302,27.3088889 4.50730159,27.1228571 4.4647619,26.9336508 C4.46126984,26.9139683 4.45492063,26.8946032 4.45174603,26.8749206 C4.38984127,26.6139683 4.33428571,26.3495238 4.28539683,26.0819048 C4.22,25.7292063 4.16793651,25.3701587 4.12857143,25.0079365 C4.11238095,24.8936508 4.10253968,24.7793651 4.09269841,24.6650794 C4.07968254,24.5444444 4.07015873,24.4266667 4.06349206,24.3060317 C4.04698413,24.0873016 4.03714286,23.8653968 4.03047619,23.6434921 C4.02730159,23.4996825 4.02380952,23.3561905 4.02380952,23.2126984 L6.14571429,27.384127 L9.79142857,28.9736508 L14.1028571,29.3622222 L17.3015873,29.6526984 L17.3212698,29.6526984 L20.3142857,29.9238095 L26.9825397,30.5244444 L30.6031746,23.2130159 Z" id="Path" fill="#543E36" fill-rule="nonzero"></path>
                        <path d="M27.7730159,5.09174603 C27.1234921,6.56380952 26.2780952,7.93142857 25.2793651,9.17174603 C25.2206349,9.24380952 25.1619048,9.31555556 25.1,9.38730159 C23.0536508,11.8514286 20.3707937,13.767619 17.3025397,14.8869841 C16.4961905,15.184127 15.664127,15.4253968 14.8088889,15.6050794 C14.2377778,15.7257143 13.6568254,15.8206349 13.0660317,15.8892063 C12.3869841,15.964127 11.6952381,16.0034921 10.9936508,16.0034921 C10.1907937,16.0034921 9.40412698,15.9511111 8.63079365,15.8501587 C7.87333333,15.7555556 7.13238095,15.6152381 6.40793651,15.4260317 C5.99333333,15.3215873 5.58857143,15.2009524 5.18698413,15.0669841 C4.79206349,14.9365079 4.40698413,14.7926984 4.02507937,14.6361905 L4.02507937,13.288254 C4.02507937,5.95428571 9.96888889,0.00761904762 17.3028571,0.000952380952 L17.315873,0.000952380952 C18.3279365,0.000952380952 19.3133333,0.114920635 20.2596825,0.327301587 C21.1247619,0.523174603 21.9571429,0.803809524 22.7469841,1.15968254 C23.824127,1.64285714 24.8260317,2.26285714 25.7269841,3.00380952 C26.4838095,3.62285714 27.1726984,4.3215873 27.7730159,5.09174603 Z" id="Path" fill="#543E36" fill-rule="nonzero"></path>
                        <path d="M30.6031746,13.2873016 L30.6031746,15.9015873 C28.3377778,14.1488889 26.4612698,11.9326984 25.1066667,9.4 C25.1034921,9.3968254 25.1034921,9.39015873 25.1,9.38698413 C23.7685714,6.9 22.9425397,4.10920635 22.7469841,1.1584127 C23.824127,1.6415873 24.8260317,2.2615873 25.7269841,3.00253968 C26.484127,3.62285714 27.1730159,4.32126984 27.7733333,5.09142857 C29.5457143,7.35047619 30.6031746,10.1933333 30.6031746,13.2873016 Z" id="Path" fill="#543E36" fill-rule="nonzero"></path>
                        <path d="M5.5815873,14.312381 C5.4415873,14.5571429 5.31396825,14.8085714 5.18666667,15.0663492 C5.13809524,15.1673016 5.08888889,15.2752381 5.04,15.3796825 C4.39714286,16.8092063 4.07365079,18.2126984 4.02793651,19.4793651 C4.02793651,19.5152381 4.02444444,19.5542857 4.02444444,19.5904762 L4.02444444,14.472381 C4.02444444,14.2895238 4.03111111,14.1098413 4.03111111,13.9336508 C4.54698413,14.067619 5.06253968,14.1980952 5.5815873,14.312381 Z" id="Path" fill="#543E36" fill-rule="nonzero"></path>
                        <path d="M29.0526984,14.312381 C29.2501587,14.6593651 29.4263492,15.0149206 29.5955556,15.3793651 C30.2584127,16.8533333 30.5828571,18.2930159 30.6107937,19.5914286 L30.6107937,14.4707937 C30.6107937,14.2907937 30.604127,14.1107937 30.604127,13.9349206 C30.0888889,14.0679365 29.5742857,14.1965079 29.0526984,14.312381 Z" id="Path" fill="#543E36" fill-rule="nonzero"></path>
                        <path d="M29.0266667,15.6311111 C29.0266667,15.5755556 28.984127,15.5266667 28.9285714,15.52 C28.4587302,15.448254 26.3434921,15.1574603 24.0685714,15.1574603 C21.4866667,15.1574603 18.1542857,15.9669841 17.5733333,15.9669841 L17.0577778,15.9669841 C16.7866667,15.9669841 15.9187302,15.7907937 14.8088889,15.6047619 C13.5326984,15.3892063 11.94,15.1574603 10.5625397,15.1574603 C8.89809524,15.1574603 7.31809524,15.3142857 6.40761905,15.4250794 C6.07460317,15.4644444 5.82984127,15.5 5.70253968,15.5196825 C5.64698413,15.5263492 5.60444444,15.5752381 5.60444444,15.6307937 L5.5784127,17.0177778 C5.5784127,17.0666667 5.60793651,17.1092063 5.65333333,17.1288889 L5.80984127,17.1844444 C6.0415873,17.2726984 6.02222222,21.4536508 7.26888889,22.4980952 C8.00984127,23.1149206 8.66920635,23.4673016 11.4466667,23.4673016 C13.055873,23.4673016 14.067619,23.0333333 15.0273016,21.7374603 C15.7193651,20.8073016 16.3326984,18.6073016 16.3326984,18.6073016 C16.5187302,17.7 17.1942857,17.628254 17.3022222,17.6215873 C17.3088889,17.6215873 17.3152381,17.6215873 17.3152381,17.6215873 C17.3377778,17.6215873 18.0987302,17.6346032 18.2977778,18.6073016 C18.2977778,18.6073016 18.9114286,20.8073016 19.6031746,21.7374603 C20.5625397,23.0333333 21.5746032,23.4673016 23.1834921,23.4673016 C25.9612698,23.4673016 26.6203175,23.1149206 27.3612698,22.4980952 C28.608254,21.4536508 28.5885714,17.2726984 28.8203175,17.1844444 L28.9771429,17.1288889 C29.0225397,17.1092063 29.0520635,17.0669841 29.0520635,17.0177778 L29.0266667,15.6311111 Z M15.027619,20.5790476 C14.6196825,21.5450794 13.5653968,22.7920635 12.0803175,22.8669841 C7.62507937,23.0920635 7.41936508,21.8485714 7.13206349,20.8628571 C6.8415873,19.8771429 6.76666667,19.0120635 6.88063492,18.0263492 C6.99809524,17.0406349 7.24634921,16.4628571 7.69365079,16.172381 C7.88603175,16.0450794 8.0952381,15.9307937 8.63047619,15.8492063 C9.11015873,15.7774603 9.85111111,15.7349206 11.0847619,15.7349206 C11.7993651,15.7349206 12.4685714,15.7904762 13.0657143,15.888254 C14.6520635,16.1428571 15.7225397,16.6815873 15.7225397,17.2133333 C15.7225397,17.5761905 15.6311111,19.1492063 15.027619,20.5790476 Z M27.4987302,20.8628571 C27.211746,21.8485714 27.0060317,23.0920635 22.5507937,22.8669841 C21.0657143,22.7920635 20.0114286,21.5450794 19.6034921,20.5790476 C18.9996825,19.1495238 18.9085714,17.5761905 18.9085714,17.2139683 C18.9085714,16.4828571 20.9387302,15.7352381 23.5463492,15.7352381 C26.1542857,15.7352381 26.571746,15.9311111 26.9377778,16.1726984 C27.3847619,16.4631746 27.6326984,17.0409524 27.7504762,18.0266667 C27.8647619,19.012381 27.7895238,19.8774603 27.4987302,20.8628571 Z" id="Shape" fill="#1A1A1A" fill-rule="nonzero"></path>
                        <g id="Group" stroke-width="1" fill="none" fill-rule="evenodd" transform="translate(3.956190, 19.070159)">
                            <path d="M13.372381,6.23809524 L13.3688889,9.45650794 L13.3657143,10.5825397 L13.3657143,11.4669841 L13.3622222,14.4044444 L13.3622222,14.407619 L13.3590476,14.4044444 L13.3555556,14.4044444 L13.3460317,14.3977778 L0.509206349,7.86380952 C0.505714286,7.84412698 0.499365079,7.8247619 0.496190476,7.80507937 C0.434285714,7.54412698 0.378730159,7.27968254 0.32984127,7.01206349 C0.264444444,6.65936508 0.212380952,6.30031746 0.173015873,5.93809524 C0.156825397,5.82380952 0.146984127,5.70952381 0.137142857,5.5952381 C0.124126984,5.47460317 0.114603175,5.3568254 0.107936508,5.23619048 C0.0914285714,5.01746032 0.0815873016,4.79555556 0.0749206349,4.57365079 C0.0717460317,4.42984127 0.0682539683,4.28634921 0.0682539683,4.14285714 L0.0682539683,0.242539683 C0.0682539683,0.298095238 0.0717460317,0.353650794 0.0717460317,0.408888889 C0.0977777778,1.35206349 0.247936508,2.39015873 0.538412698,3.45079365 C0.763809524,4.26666667 1.04444444,5.02063492 1.37079365,5.69301587 L1.37079365,5.69619048 C2.22603175,7.4752381 3.37174603,8.68253968 4.42571429,8.8784127 C4.49111111,8.88825397 4.55968254,8.89460317 4.62507937,8.90126984 C5.03301587,8.94698413 5.46063492,8.97301587 5.90126984,8.97301587 C7.56571429,8.97301587 9.04444444,7.63492063 9.97460317,7.09301587 C9.98126984,7.08984127 9.98761905,7.08634921 9.99428571,7.0831746 C10.0431746,7.05365079 10.092381,7.02444444 10.1346032,6.99492063 C10.147619,6.98507937 10.1606349,6.97873016 10.1736508,6.97206349 C10.9571429,6.5247619 12.0863492,6.24095238 13.3463492,6.23777778 L13.372381,6.23777778 L13.372381,6.23809524 Z" id="Path" fill="#543E36" fill-rule="nonzero"></path>
                            <path d="M26.6498413,0.242539683 L26.6466667,4.14285714 C26.6466667,5.12222222 26.5552381,6.0815873 26.3857143,7.01206349 C26.3168254,7.38412698 26.2387302,7.75269841 26.1473016,8.1184127 L23.1346032,12.4692063 L13.3625397,14.4047619 L13.3593651,14.4047619 L13.355873,14.4079365 L13.355873,14.4047619 L13.3463492,6.23746032 L13.372381,6.23746032 C14.632381,6.24063492 15.7647619,6.5247619 16.548254,6.97174603 C16.5612698,6.9784127 16.5707937,6.9847619 16.584127,6.99460317 C16.6298413,7.02412698 16.6787302,7.05333333 16.727619,7.08285714 C16.7307937,7.08603175 16.7371429,7.08952381 16.7438095,7.09269841 C17.6774603,7.63460317 19.1526984,8.97365079 20.8174603,8.97365079 C21.2580952,8.97365079 21.6853968,8.94761905 22.0933333,8.90190476 C22.1619048,8.8952381 22.2273016,8.88888889 22.295873,8.87904762 C23.3469841,8.6831746 24.495873,7.47555556 25.347619,5.6968254 L25.347619,5.69365079 C25.6736508,5.02126984 25.9546032,4.26730159 26.1796825,3.45142857 C26.4736508,2.37428571 26.6269841,1.32349206 26.6466667,0.366984127 C26.6498413,0.324126984 26.6498413,0.284761905 26.6498413,0.242539683 Z" id="Path" fill="#543E36" fill-rule="nonzero"></path>
                        </g>
                        <ellipse id="Oval" fill="#ECC19C" fill-rule="nonzero" cx="17.3130159" cy="29.5320635" rx="3.25555556" ry="1.00634921"></ellipse>
                        <g id="Group" stroke-width="1" fill="none" fill-rule="evenodd" transform="translate(6.178413, 45.736825)">
                            <path d="M1.62888889,0.0552380952 L1.62888889,18.0101587 L0.241904762,18.0101587 L0.241904762,1.06730159 C0.427936508,0.917142857 0.613968254,0.77015873 0.803492063,0.62984127 C1.07428571,0.427619048 1.34825397,0.238095238 1.62888889,0.0552380952 Z" id="Path" fill="#435363" fill-rule="nonzero"></path>
                            <polygon id="Path" fill="#435363" fill-rule="nonzero" points="20.6415873 0.0587301587 20.6415873 14.5209524 20.6415873 18.0101587 22.0285714 18.0101587 22.0285714 14.5209524 22.0285714 1.07047619"></polygon>
                        </g>
                        <g id="Group" stroke-width="1" fill="none" fill-rule="evenodd" transform="translate(9.987937, 41.609841)">
                            <g transform="translate(3.492063, 2.857143)" fill="#141720" fill-rule="nonzero" id="Path">
                                <polygon points="0.0358730159 0.226349206 3.83301587 4.77746032 7.63047619 0.226349206"></polygon>
                                <path d="M3.83301587,23.6307937 L1.58761905,23.6307937 L3.20984127,2.74190476 C3.27809524,3.00761905 4.38825397,3.00761905 4.45650794,2.74190476 L6.07873016,23.6307937 L3.83301587,23.6307937 Z"></path>
                            </g>
                            <g fill="#E7ECF2" fill-rule="nonzero" id="Path">
                                <path d="M7.32380952,3.05968254 L7.31428571,3.07587302 L7.31079365,3.08253968 L5.73428571,5.72952381 L4.26222222,8.1968254 L0.276825397,2.65809524 C0.404126984,2.56666667 0.531428571,2.46888889 0.652380952,2.36761905 C0.655555556,2.37079365 0.655555556,2.37079365 0.659047619,2.37428571 C1.4584127,1.73777778 2.17015873,0.99047619 2.76095238,0.154920635 L7.31428571,3.05333333 L7.32380952,3.05968254 Z"></path>
                                <path d="M14.3739683,2.65809524 L10.3885714,8.1968254 L8.91650794,5.72952381 L7.33650794,3.08253968 L7.32349206,3.05968254 L11.9063492,0.141904762 C12.5003175,0.983809524 13.2085714,1.73460317 14.0114286,2.37746032 C14.1326984,2.4752381 14.2530159,2.57015873 14.3739683,2.65809524 Z"></path>
                            </g>
                        </g>
                    </g>
                </g>
            </g>
        </g>
    </g>
</svg>